<?xml version="1.0" encoding="UTF-8" standalone="no"?>
<!-- Created with Inkscape (http://www.inkscape.org/) -->

<svg
   xmlns:dc="http://purl.org/dc/elements/1.1/"
   xmlns:cc="http://creativecommons.org/ns#"
   xmlns:rdf="http://www.w3.org/1999/02/22-rdf-syntax-ns#"
   xmlns:svg="http://www.w3.org/2000/svg"
   xmlns="http://www.w3.org/2000/svg"
   xmlns:sodipodi="http://sodipodi.sourceforge.net/DTD/sodipodi-0.dtd"
   xmlns:inkscape="http://www.inkscape.org/namespaces/inkscape"
   version="1.1"
   id="svg2"
   width="181"
   height="160"
   viewBox="0 0 181 160"
   sodipodi:docname="CMSA_20220411.svg"
   inkscape:version="0.92.3 (2405546, 2018-03-11)"
   inkscape:export-filename="C:\Users\sonof\Dropbox\LaTeX\Admin\CMSA\CMSA_181x160_20220411.png"
   inkscape:export-xdpi="102.51014"
   inkscape:export-ydpi="102.51014">
  <metadata
     id="metadata8">
    <rdf:RDF>
      <cc:Work
         rdf:about="">
        <dc:format>image/svg+xml</dc:format>
        <dc:type
           rdf:resource="http://purl.org/dc/dcmitype/StillImage" />
        <dc:title></dc:title>
      </cc:Work>
    </rdf:RDF>
  </metadata>
  <defs
     id="defs6" />
  <sodipodi:namedview
     pagecolor="#ffffff"
     bordercolor="#666666"
     borderopacity="1"
     objecttolerance="10"
     gridtolerance="10"
     guidetolerance="10"
     inkscape:pageopacity="0"
     inkscape:pageshadow="2"
     inkscape:window-width="3840"
     inkscape:window-height="2115"
     id="namedview4"
     showgrid="false"
     inkscape:zoom="16.68772"
     inkscape:cx="101.58804"
     inkscape:cy="44.510609"
     inkscape:window-x="-13"
     inkscape:window-y="-13"
     inkscape:window-maximized="1"
     inkscape:current-layer="layer1" />
  <g
     inkscape:groupmode="layer"
     id="layer1"
     inkscape:label="Layer 1">
    <g
       aria-label="CMSA"
       transform="scale(0.99062577,1.0094629)"
       style="font-style:normal;font-variant:normal;font-weight:normal;font-stretch:normal;font-size:24.13935661px;line-height:1.25;font-family:Corbel;-inkscape-font-specification:'Corbel, Normal';font-variant-ligatures:normal;font-variant-caps:normal;font-variant-numeric:normal;font-feature-settings:normal;text-align:start;letter-spacing:0px;word-spacing:0px;writing-mode:lr-tb;text-anchor:start;fill:#000000;fill-opacity:1;stroke:none;stroke-width:0.90522593"
       id="text1008">
      <path
         d="m 69.23056,139.06644 q -1.308334,0 -2.451654,0.42433 -1.131532,0.41254 -1.968394,1.2494 -0.836863,0.82507 -1.320121,2.06269 -0.483259,1.22582 -0.483259,2.86419 0,1.62658 0.447898,2.82883 0.447898,1.19047 1.272974,1.98018 0.825076,0.77793 1.980182,1.15511 1.166892,0.37717 2.593095,0.37717 0.388964,0 0.825075,-0.0354 0.436112,-0.0471 0.872223,-0.11786 0.447898,-0.0825 0.860436,-0.17681 0.424325,-0.10608 0.754355,-0.22394 v 1.69729 q -0.695421,0.2711 -1.614791,0.41254 -0.91937,0.15323 -1.885887,0.15323 -1.968395,0 -3.488892,-0.54219 -1.520496,-0.55398 -2.557734,-1.57943 -1.025451,-1.02545 -1.555857,-2.4988 -0.530406,-1.48514 -0.530406,-3.35924 0,-1.83874 0.55398,-3.38281 0.565766,-1.54407 1.61479,-2.65203 1.060812,-1.10796 2.557735,-1.72087 1.50871,-0.6247 3.38281,-0.6247 0.495046,0 0.978304,0.0471 0.483259,0.0354 0.91937,0.11786 0.447899,0.0707 0.825076,0.17681 0.377177,0.10608 0.648274,0.22394 v 1.6973 q -0.707208,-0.23573 -1.54407,-0.38896 -0.836863,-0.16502 -1.685512,-0.16502 z"
         style="stroke-width:0.90522593"
         id="path4533" />
      <path
         d="m 84.16443,153.42276 h -0.88401 l -3.97215,-9.41765 q -0.825075,-1.94482 -1.650151,-4.23146 h -0.0943 q 0.165016,3.28852 0.165016,6.02305 v 7.62606 h -1.921248 v -15.77073 h 2.769897 l 3.71284,8.9226 q 0.636487,1.53229 1.402629,3.68927 h 0.05893 q 0.848649,-2.39272 1.402629,-3.68927 l 3.71284,-8.9226 h 2.769897 v 15.77073 H 89.71601 v -7.62606 q 0,-2.6756 0.165016,-6.02305 h -0.0943 q -0.872223,2.41629 -1.650151,4.23146 z"
         style="stroke-width:0.90522593"
         id="path4535" />
      <path
         d="m 97.118115,141.82455 q 0,0.69542 0.282884,1.15511 0.282883,0.4479 0.754354,0.74257 0.483259,0.29467 1.107959,0.48326 0.636487,0.18858 1.320118,0.3536 0.91937,0.22395 1.80338,0.49505 0.8958,0.27109 1.59122,0.75435 0.69542,0.47147 1.11975,1.23761 0.43611,0.76615 0.43611,1.9684 0,1.22583 -0.45969,2.12162 -0.4479,0.88401 -1.26118,1.46156 -0.80151,0.56577 -1.92125,0.83687 -1.11975,0.28288 -2.451656,0.28288 -0.612913,0 -1.261187,-0.0825 -0.636487,-0.0707 -1.225827,-0.20037 -0.577553,-0.12966 -1.049024,-0.29467 -0.471472,-0.16502 -0.742569,-0.33003 v -1.75624 q 0.424325,0.21217 0.954731,0.38897 0.530406,0.1768 1.096172,0.30646 0.565766,0.11786 1.143319,0.18858 0.577553,0.0707 1.084385,0.0707 0.825076,0 1.567646,-0.14144 0.75435,-0.14144 1.32012,-0.47147 0.56577,-0.33003 0.8958,-0.8958 0.33003,-0.57755 0.33003,-1.43798 0,-0.70721 -0.29467,-1.1669 -0.28289,-0.45968 -0.76615,-0.75435 -0.48325,-0.30646 -1.11974,-0.49505 -0.6247,-0.18859 -1.32012,-0.3536 -0.919373,-0.21216 -1.803382,-0.47147 -0.872223,-0.2711 -1.567644,-0.74257 -0.683634,-0.47147 -1.107959,-1.21404 -0.412538,-0.74257 -0.412538,-1.89767 0,-1.20226 0.424325,-2.06269 0.424325,-0.87223 1.155106,-1.43799 0.730781,-0.56577 1.709085,-0.83687 0.978304,-0.27109 2.086267,-0.27109 1.26118,0 2.34557,0.24752 1.09617,0.23574 2.00375,0.6247 v 1.77981 q -0.9783,-0.41254 -2.02733,-0.67185 -1.03723,-0.25931 -2.2277,-0.2711 -0.895796,0 -1.555856,0.20038 -0.660061,0.18859 -1.096172,0.55398 -0.436112,0.3536 -0.648274,0.87222 -0.212163,0.50683 -0.212163,1.13153 z"
         style="stroke-width:0.90522593"
         id="path4537" />
      <path
         d="m 107.40799,153.42276 6.4238,-15.77073 h 1.66194 l 6.42381,15.77073 h -2.08627 l -1.88588,-4.75008 h -6.58882 l -1.88589,4.75008 z m 7.23709,-13.31908 q -1.04902,2.9467 -2.01554,5.35121 l -0.58934,1.48513 h 5.22155 l -0.58934,-1.48513 q -0.96652,-2.45166 -1.98018,-5.35121 z"
         style="stroke-width:0.90522593"
         id="path4539" />
    </g>
  </g>
  <g
     id="g927" />
  <g
     id="g942">
    <g
       id="g1062">
      <circle
         style="fill:#000000;stroke:#e19652;stroke-width:0;stroke-miterlimit:4;stroke-dasharray:none;stroke-opacity:1"
         id="path824"
         cx="91.059326"
         cy="101.39831"
         r="3.6016948" />
      <circle
         style="fill:#000000;stroke:#e19652;stroke-width:0;stroke-miterlimit:4;stroke-dasharray:none;stroke-opacity:1"
         id="path824-92"
         cx="171.94916"
         cy="147.62712"
         r="3.6016948" />
      <g
         id="g948">
        <circle
           r="3.6016948"
           cy="147.70584"
           cx="9.6473589"
           id="path824-9"
           style="fill:#000000;stroke:#e19652;stroke-width:0;stroke-miterlimit:4;stroke-dasharray:none;stroke-opacity:1" />
        <path
           sodipodi:nodetypes="ccccccc"
           inkscape:connector-curvature="0"
           id="path861"
           d="m 32.693567,108.76814 -23.0462081,38.9377 43.0550851,-24.5444 m 29.09854,-16.5882 9.300711,-5.30205 V 10.084746 L 65.9686,52.548343"
           style="fill:none;stroke:#000000;stroke-width:1.7;stroke-linecap:butt;stroke-linejoin:round;stroke-miterlimit:4;stroke-dasharray:none;stroke-opacity:1" />
        <circle
           r="3.6016948"
           cy="9.9152527"
           cx="90.932198"
           id="path824-8"
           style="fill:#000000;stroke:#e19652;stroke-width:0;stroke-miterlimit:4;stroke-dasharray:none;stroke-opacity:1" />
        <path
           style="fill:none;stroke:#000000;stroke-width:1.70000005;stroke-linecap:butt;stroke-linejoin:round;stroke-miterlimit:4;stroke-dasharray:none;stroke-opacity:1"
           d="M 127.47375,122.16983 171.93462,147.71614 91.101695,10.084746 v 91.186444 l 15.676235,9.00725"
           id="path857"
           inkscape:connector-curvature="0"
           sodipodi:nodetypes="ccccc" />
      </g>
      <g
         id="g991">
        <path
           sodipodi:nodetypes="cccc"
           inkscape:connector-curvature="0"
           id="path865"
           d="m 9.6473589,147.70584 44.7039891,0.003 m 69.991582,0.004 47.59169,0.003"
           style="fill:none;stroke:#000000;stroke-width:1.70000005;stroke-linecap:butt;stroke-linejoin:miter;stroke-miterlimit:4;stroke-dasharray:none;stroke-opacity:1" />
      </g>
    </g>
  </g>
  <g
     id="g872">
    <g
       id="g877">
      <g
         id="g881" />
    </g>
  </g>
  <path
     style="opacity:1;fill:#000000;fill-opacity:0;stroke:#28cab2;stroke-width:1;stroke-miterlimit:4;stroke-dasharray:none;stroke-opacity:1;stroke-linejoin:round"
     d="m 107.22319,132.73136 c -0.31088,-0.0463 -0.69437,-0.24603 -0.85218,-0.44375 -0.15782,-0.19771 -0.35326,-0.28966 -0.43432,-0.20434 -0.081,0.0853 -0.30184,0.0312 -0.4906,-0.12011 -0.18876,-0.1514 -0.70766,-0.26764 -1.1531,-0.2583 -0.52775,0.011 -0.79234,-0.0824 -0.75951,-0.26855 0.0276,-0.15702 -0.0511,-0.28336 -0.17494,-0.28077 -0.12392,0.003 -0.22744,-0.0976 -0.23006,-0.22274 -0.003,-0.1251 0.17263,-0.23274 0.38944,-0.23919 0.27657,-0.008 0.31022,-0.063 0.11284,-0.18397 -0.215,-0.1316 -0.18461,-0.35943 0.12894,-0.96633 0.48912,-0.94674 2.72748,-3.45954 3.08843,-3.4671 0.30829,-0.006 1.33686,-0.75489 2.67419,-1.94588 1.6539,-1.47294 1.76756,-1.61563 2.01975,-2.53573 0.1337,-0.48773 0.40909,-1.01124 0.61199,-1.16338 0.46966,-0.35208 0.87282,-1.15541 0.86108,-1.71576 -0.005,-0.23904 0.18978,-0.62412 0.43287,-0.85573 0.39745,-0.37872 0.44275,-0.38323 0.44985,-0.0447 0.004,0.20704 0.15995,0.37325 0.34582,0.36936 0.21026,-0.004 0.34243,0.20773 0.34984,0.56155 0.0136,0.64879 0.17054,0.68983 0.77988,0.204 0.81943,-0.65337 1.19051,-0.45963 1.16565,0.60859 -0.0224,0.96255 -0.45487,2.22819 -0.76358,2.23466 -0.0889,0.002 -0.27669,0.30102 -0.4171,0.66479 -0.14041,0.36377 -0.49685,0.88256 -0.79206,1.15286 -0.638,0.58417 -0.66225,0.87715 -0.12181,1.47072 0.39108,0.42953 0.38646,0.4394 -0.14748,0.31581 -0.37455,-0.0866 -0.89486,0.0769 -1.62346,0.51029 -0.88844,0.52853 -1.09146,0.77479 -1.18436,1.43666 -0.0616,0.43934 -0.19171,1.00526 -0.28896,1.25762 -0.0973,0.25234 -0.3014,0.81389 -0.4537,1.24789 -0.32616,0.92952 -1.8685,2.67974 -2.50979,2.84808 -0.24658,0.0648 -0.70268,0.0798 -1.01357,0.0334 z M 66.669059,125.6167 c -0.343951,-0.0451 -0.568971,-0.17869 -0.500044,-0.29676 0.06893,-0.11809 0.02223,-0.21254 -0.103779,-0.2099 -0.366796,0.008 -1.554743,-2.08347 -1.246603,-2.19439 0.176386,-0.0636 0.03245,-0.53399 -0.435025,-1.42195 -0.728841,-1.38444 -0.923206,-2.47666 -0.441005,-2.47821 0.15495,-2.5e-4 0.742349,0.20026 1.30534,0.44612 1.134375,0.49541 2.614458,0.41032 3.750922,-0.21561 0.342002,-0.18837 0.705808,-0.26117 0.80847,-0.16177 0.220761,0.21373 0.407894,2.97987 0.192905,2.85135 -0.199632,-0.11935 -0.407359,0.51046 -0.393087,1.19179 0.0068,0.32498 -0.15139,0.61973 -0.379617,0.70725 -0.476856,0.1829 -1.363363,1.2444 -1.366318,1.63602 -0.0023,0.28716 -0.06159,0.29443 -1.192167,0.14606 z m 51.443471,-6.18286 c -0.42814,-0.4029 -0.43176,-0.45231 -0.079,-1.08512 0.20325,-0.36466 0.36196,-1.02353 0.35273,-1.46418 -0.0154,-0.73358 -0.12352,-0.85988 -1.28216,-1.49718 -0.69594,-0.38279 -1.23039,-0.80991 -1.18764,-0.94911 0.0428,-0.13922 0.37118,-0.42549 0.72984,-0.63615 0.54743,-0.32158 0.67729,-0.58155 0.80902,-1.61967 0.0864,-0.68013 0.10076,-1.56219 0.032,-1.96008 -0.0754,-0.43681 -0.0201,-0.77005 0.13814,-0.84094 0.14659,-0.0655 0.0443,-0.17988 -0.23142,-0.25856 -0.3689,-0.10529 -0.49316,-0.31143 -0.48957,-0.81207 0.003,-0.36904 -0.11449,-0.78658 -0.26052,-0.9279 -0.20045,-0.19406 -0.26369,-0.17695 -0.25852,0.07 0.01,0.4633 -1.79097,-2.02159 -1.92692,-2.65908 -0.0801,-0.37603 -0.0414,-0.45829 0.13515,-0.28728 0.13612,0.13179 0.42649,0.23587 0.64525,0.23129 0.57697,-0.0121 1.81479,1.22901 1.65975,1.66414 -0.0701,0.19665 0.014,0.52344 0.18728,0.72618 0.35573,0.41673 0.43372,1.24272 0.13865,1.46869 -0.10774,0.0826 0.12322,0.21381 0.51325,0.29176 0.39003,0.078 0.7122,0.28715 0.71592,0.46486 0.004,0.17771 0.10813,0.32098 0.23207,0.31838 0.1239,-0.003 0.21949,-0.28107 0.21241,-0.61884 -0.0165,-0.78766 0.33941,-0.45309 0.62538,0.58788 0.14048,0.51141 0.44905,0.90476 0.89925,1.14641 1.29884,0.69714 1.64243,0.70832 2.35524,0.0766 0.91648,-0.81223 1.31276,-0.6161 1.19184,0.58988 -0.0526,0.52464 -0.23347,1.07043 -0.4019,1.21293 -0.16845,0.14248 -0.30162,0.55487 -0.29593,0.91642 0.008,0.49195 -0.0439,0.5747 -0.20524,0.32879 -0.16697,-0.25449 -0.35716,-0.27498 -0.84368,-0.0909 -0.53938,0.20411 -0.62992,0.3676 -0.64101,1.15726 -0.009,0.62814 -0.26192,1.33141 -0.79872,2.21923 -0.43221,0.71482 -0.78436,1.37009 -0.78255,1.45612 0.002,0.0861 -0.1712,0.30112 -0.38443,0.47794 -0.82996,0.68825 -1.04747,0.73196 -1.50401,0.30236 z m -57.784394,-5.49368 c -0.534953,-0.3376 -1.235627,-0.55564 -1.814956,-0.56477 -0.518989,-0.008 -1.080354,-0.14433 -1.247481,-0.30256 -0.167123,-0.15823 -0.482416,-0.28394 -0.700648,-0.27936 -0.218233,0.005 -0.726347,-0.3884 -1.129146,-0.87323 -0.567433,-0.68301 -0.737173,-1.10224 -0.753732,-1.86155 -0.01255,-0.57775 -0.212382,-1.28184 -0.486711,-1.71531 -0.255938,-0.40442 -0.469578,-0.93755 -0.474756,-1.18473 -0.01112,-0.53087 -0.193003,-0.55068 -0.777374,-0.0848 -0.236678,0.18872 -0.607698,0.34682 -0.82449,0.35136 -0.358149,0.008 -0.365831,-0.0495 -0.08408,-0.624 0.393108,-0.80157 0.386129,-0.97024 -0.07696,-1.86002 -0.424448,-0.81553 -0.603721,-0.72331 -0.960923,0.49434 -0.175059,0.59675 -0.41055,0.88197 -0.821844,0.9954 -0.317057,0.0876 -0.626388,0.11065 -0.687393,0.0516 -0.187506,-0.18154 0.157057,-0.5984 0.500562,-0.6056 0.205048,-0.004 0.319746,-0.24045 0.311354,-0.64108 -0.0073,-0.34884 0.1825,-1.04303 0.421792,-1.54263 0.239292,-0.49962 0.384688,-1.03304 0.323099,-1.1854 -0.06158,-0.15233 -0.02569,-0.33337 0.07978,-0.40229 0.105471,-0.0689 0.136088,-0.3231 0.06805,-0.56485 -0.116501,-0.41386 -0.146597,-0.41654 -0.515316,-0.0459 -0.215371,0.21652 -0.45537,0.62031 -0.533331,0.89734 -0.07796,0.27703 -0.484988,0.72797 -0.904507,1.00211 -0.850263,0.5556 -1.789686,1.81227 -1.680823,2.24843 0.03894,0.15601 -0.08181,0.28686 -0.268332,0.29076 -0.208791,0.004 -0.44489,-0.36237 -0.614313,-0.95424 -0.151351,-0.52875 -0.409048,-1.11215 -0.572662,-1.29646 -0.163614,-0.18431 -0.373781,-0.56977 -0.467043,-0.85658 -0.09327,-0.28682 -0.427005,-0.61416 -0.741652,-0.72745 -0.465881,-0.16772 -0.5482,-0.31143 -0.443417,-0.77411 0.08679,-0.38322 0.0349,-0.5662 -0.159364,-0.56214 -0.158421,0.003 -0.410748,-0.18335 -0.56073,-0.41483 -0.185947,-0.287 -0.447753,-0.383285 -0.823006,-0.30267 -0.302673,0.0649 -0.621228,0.007 -0.707875,-0.127485 -0.08665,-0.13512 -0.465079,-0.23924 -0.840931,-0.23137 -0.375851,0.008 -0.94962,-0.18818 -1.275044,-0.435682 -0.534321,-0.406383 -0.805799,-0.43264 -2.800592,-0.270853 -1.727033,0.140071 -2.489118,0.317057 -3.493339,0.811285 -0.883953,0.435045 -1.775545,0.670495 -2.859582,0.755145 -0.866336,0.0677 -1.724761,0.24404 -1.907609,0.39198 -0.36118,0.29223 -1.667391,0.97174 -2.268503,1.1801 -0.206073,0.0714 -0.539072,0.49955 -0.739999,0.95139 -0.200923,0.45184 -0.467112,0.88803 -0.591527,0.96933 -0.124416,0.0813 -1.656384,0.19793 -3.404374,0.25916 -3.399529,0.11902 -3.870959,0.22403 -4.069691,0.90579 -0.07543,0.25877 -0.33334,0.44106 -0.632882,0.44733 -0.278061,0.006 -0.730185,0.23092 -1.00472,0.50019 -0.274536,0.26929 -0.76068,0.56614 -1.080322,0.65966 -0.931921,0.2727 -2.718128,-0.0213 -3.401247,-0.55987 -0.343372,-0.27071 -0.905631,-0.6066 -1.249464,-0.74644 -0.7791706,-0.31686 -0.9469359,-1.51305 -0.214359,-1.52839 0.635954,-0.0133 0.75776,-0.36488 0.806332,-2.32725 0.038,-1.53553 -0.03364,-1.906765 -0.561174,-2.904967 C 10.263326,98.086306 9.9064127,96.91515 9.7716566,95.990238 9.6426952,95.105095 9.4255441,94.272804 9.2890983,94.140698 9.1526534,94.008595 9.0375606,93.73557 9.0333378,93.533976 9.029115,93.332384 8.8182948,92.951963 8.5648479,92.688591 8.3114014,92.425223 8.0979341,91.918433 8.0904761,91.562392 8.0830181,91.206353 7.7626297,90.437223 7.3785022,89.853218 6.9943748,89.269215 6.6816374,88.718116 6.6835313,88.628556 c 0.00187,-0.08956 0.1105301,0.01411 0.2414167,0.230402 0.1308854,0.216282 0.3343166,0.391221 0.452071,0.388755 0.1177533,-0.0025 0.2183483,-0.183775 0.2235444,-0.402907 0.00569,-0.240361 0.057086,-0.286012 0.1295365,-0.115072 0.1649974,0.389312 0.5287552,0.110925 0.5181256,-0.396527 C 8.2434546,88.105447 7.8743676,87.22343 7.4280331,86.373167 6.6199333,84.833746 6.5373074,84.115475 7.084245,83.3846 c 0.1229846,-0.164343 0.2063837,-0.778123 0.1853339,-1.363951 -0.021003,-0.585831 0.095518,-1.326318 0.2590398,-1.64553 l 0.2973122,-0.580383 0.024794,0.752467 c 0.027261,0.826332 0.3749544,0.789581 0.6788762,-0.07175 0.1000808,-0.283632 0.5367487,-0.694902 0.9703736,-0.913929 0.4336237,-0.219026 1.0670913,-0.642384 1.4077053,-0.9408 0.964074,-0.844632 1.514268,-1.083461 2.564692,-1.113284 0.534683,-0.0152 1.165796,-0.182001 1.402476,-0.37071 0.236681,-0.188711 0.655955,-0.347838 0.931723,-0.353614 0.275767,-0.0058 0.540867,-0.139039 0.589112,-0.29614 0.05078,-0.165367 0.511943,-0.306087 1.095234,-0.334199 1.456011,-0.07018 3.030221,-0.879583 3.485251,-1.791992 0.205925,-0.41291 0.653286,-1.037075 0.994137,-1.387034 0.523797,-0.537798 0.579338,-0.70877 0.35881,-1.104531 -0.33758,-0.60582 -0.171192,-1.136165 0.60073,-1.914758 l 0.623226,-0.62862 0.428516,0.907856 c 0.428087,0.906943 0.816666,1.186141 0.803919,0.57762 -0.0037,-0.177225 0.118995,-0.371795 0.272682,-0.432377 0.223545,-0.08812 0.221845,-0.169247 -0.0085,-0.405631 -0.5196,-0.533228 -0.365655,-1.057317 0.293218,-0.998234 0.328344,0.02944 0.731584,-0.08817 0.896087,-0.261364 0.345253,-0.363489 0.397036,-0.900185 0.06597,-0.683855 -0.346163,0.226202 -0.271781,-0.328257 0.09598,-0.715442 0.181004,-0.190565 0.448463,-0.275431 0.594351,-0.188592 0.170183,0.101299 0.202191,0.05957 0.08931,-0.116456 -0.111764,-0.17427 -0.0063,-0.322979 0.289336,-0.407672 0.377815,-0.108267 0.420759,-0.213228 0.228442,-0.558359 -0.238634,-0.428256 -0.06408,-0.529792 0.869404,-0.505724 0.166852,0.0043 0.49601,-0.194998 0.731463,-0.442888 0.235453,-0.247888 0.527781,-0.391369 0.64962,-0.318845 0.121837,0.07251 0.280089,-0.0325 0.351667,-0.233405 0.303957,-0.853089 2.711912,0.860786 2.458599,1.749921 -0.131193,0.460486 -0.12502,0.461133 0.328841,0.03441 0.503625,-0.473505 1.605608,-0.39805 1.62255,0.111097 0.006,0.181476 0.08482,0.158292 0.22401,-0.06592 0.175715,-0.283045 0.25106,-0.291486 0.414991,-0.0465 0.163775,0.244751 0.222174,0.237921 0.320298,-0.03748 0.06602,-0.185245 -0.04543,-0.564927 -0.247652,-0.843741 -0.336868,-0.464487 -0.336832,-0.530699 4.2e-4,-0.790774 0.20245,-0.156114 0.364721,-0.444782 0.3606,-0.641486 -0.0041,-0.196707 0.198119,-0.428313 0.449419,-0.514683 0.306735,-0.105417 0.413385,-0.285988 0.324484,-0.549369 -0.08211,-0.243249 0.07813,-0.600585 0.421664,-0.940369 0.304752,-0.301421 0.559158,-0.453494 0.565347,-0.337938 0.0062,0.115551 0.111033,0.02844 0.232984,-0.19358 0.172675,-0.314372 0.406674,-0.378197 1.057709,-0.288501 1.083196,0.149238 2.067936,-0.252068 2.055668,-0.837736 -0.01075,-0.513426 0.412775,-0.878921 0.633569,-0.546758 0.149636,0.225112 2.581617,0.956244 2.913138,0.875784 0.09802,-0.02379 0.3493,0.02851 0.558386,0.116207 0.20909,0.08771 0.613594,0.03042 0.898897,-0.127303 0.285305,-0.157721 0.445919,-0.204653 0.356925,-0.104287 -0.089,0.100355 0.104589,0.314977 0.430188,0.476924 0.75889,0.377462 0.767566,0.375578 0.756261,-0.164098 -0.0052,-0.250202 0.09185,-0.457036 0.215764,-0.459631 0.123911,-0.0026 0.227435,0.09764 0.230056,0.222738 0.0026,0.125099 0.156837,0.224269 0.342702,0.220376 0.185866,-0.0039 0.340083,0.09528 0.342704,0.220377 0.0026,0.125102 -0.08671,0.229372 -0.198488,0.231714 -0.11179,0.0023 -0.300191,0.305295 -0.418668,0.673229 -0.140566,0.436526 -0.397249,0.699129 -0.738737,0.755767 -0.411904,0.06831 -0.505966,0.207399 -0.441793,0.653243 0.04485,0.311546 -0.139188,1.002136 -0.408955,1.534642 -0.269767,0.532508 -0.443441,1.001088 -0.385939,1.041291 0.0575,0.0402 0.483771,0.342609 0.947268,0.672016 0.463497,0.329407 0.950867,0.596656 1.083046,0.593887 0.132178,-0.0028 0.243095,0.07172 0.246481,0.165505 0.0033,0.09379 0.440131,0.365188 0.970543,0.603094 0.530412,0.237905 1.094137,0.601003 1.252724,0.806879 0.158584,0.20588 0.691625,0.434454 1.184535,0.507941 0.551715,0.08225 0.94612,0.281512 1.026071,0.518375 0.146686,0.434581 1.275286,1.141905 1.80433,1.130823 0.588375,-0.01233 1.485874,-0.541471 1.478951,-0.871958 -0.0036,-0.171972 0.144818,-0.556969 0.329822,-0.855547 0.439042,-0.708563 0.764528,-2.695667 0.676038,-4.127221 -0.03864,-0.624971 -0.05969,-1.29013 -0.04678,-1.478134 0.06833,-0.996316 0.160685,-1.533303 0.306738,-1.783512 0.08937,-0.153115 0.09706,-0.472289 0.01707,-0.709272 -0.07999,-0.236983 -0.05503,-0.489952 0.05545,-0.562154 0.110491,-0.0722 0.320329,-0.599852 0.466306,-1.172559 0.145978,-0.572707 0.356128,-1.100564 0.467003,-1.173016 0.356928,-0.233238 0.868828,0.384658 0.883099,1.065962 0.0079,0.377181 0.159772,0.714698 0.353236,0.785027 0.186656,0.06786 0.282553,0.220719 0.213102,0.339697 -0.06945,0.118979 -0.01018,0.351696 0.131758,0.517149 0.141916,0.165453 0.428862,1.050959 0.637659,1.967788 0.436831,1.918138 0.592892,2.146684 1.1946,1.749451 0.373037,-0.246269 0.536077,-0.202582 1.118554,0.29973 0.531544,0.458386 0.755504,0.924987 1.015885,2.116518 0.183711,0.840672 0.552301,1.814104 0.819084,2.163182 0.319461,0.418001 0.492228,0.976757 0.506051,1.636664 0.01294,0.617791 0.135418,1.04358 0.319428,1.11047 0.16414,0.05966 0.271434,0.339795 0.238429,0.622501 -0.04866,0.416869 0.15512,0.61716 1.07838,1.059853 0.626112,0.300214 1.174546,0.624043 1.218737,0.719618 0.0746,0.161334 1.379528,0.898137 1.633037,0.922064 0.381475,0.03601 0.625905,0.397556 0.533266,0.788788 -0.06889,0.290951 0.02723,0.503397 0.267318,0.590666 0.401925,0.146108 1.061809,1.449935 1.075969,2.125947 0.0047,0.225986 0.183967,0.580671 0.398308,0.788187 0.366228,0.35458 0.397389,0.353576 0.517395,-0.01664 0.114046,-0.351844 0.159202,-0.357215 0.422493,-0.05025 0.16214,0.189032 0.438289,0.284618 0.613659,0.212417 0.244979,-0.100863 0.323498,0.09009 0.338875,0.824178 0.01601,0.764163 0.110723,0.97738 0.473089,1.064977 0.249192,0.06023 0.455237,0.212692 0.457879,0.338784 0.0026,0.126091 0.522096,0.714517 1.154344,1.307606 0.632248,0.593091 1.151421,1.167991 1.153716,1.277556 0.0023,0.109565 0.196302,0.36751 0.431129,0.573208 0.402682,0.352742 0.447122,0.344114 0.781744,-0.151774 0.347956,-0.515654 0.350191,-0.512537 0.11603,0.161897 -0.356373,1.026437 -0.140105,3.896327 0.415987,5.520198 0.381089,1.11283 0.438656,1.557689 0.264308,2.042468 -0.377804,1.050497 -0.86414,3.476248 -0.849128,4.235272 0.0079,0.396484 -0.181108,1.060247 -0.419885,1.475029 -0.238791,0.414776 -0.431013,0.904035 -0.427175,1.087232 0.0086,0.41012 -0.660381,1.262483 -0.996389,1.269523 -0.261755,0.005 -1.835868,3.4007 -1.824663,3.93561 0.0036,0.17376 -0.239369,0.80707 -0.540018,1.40741 -0.586839,1.17183 -0.993835,3.00891 -0.94435,4.26264 0.03961,1.003 -0.389613,1.32202 -2.08337,1.54852 -1.447462,0.19358 -2.20068,0.56654 -2.903086,1.43746 -0.243323,0.30168 -0.643105,0.58435 -0.888406,0.62813 -0.245299,0.0436 -0.568225,0.16024 -0.717613,0.25883 -0.366536,0.24184 -1.478208,-0.48453 -1.339085,-0.87499 0.0619,-0.17376 -0.03497,-0.30696 -0.220421,-0.30307 -0.181976,0.004 -0.328722,0.10927 -0.326101,0.23439 0.0026,0.12509 -0.172822,0.22309 -0.389873,0.21775 -0.235755,-0.006 -0.282226,-0.0583 -0.115425,-0.13031 0.304368,-0.1315 0.367696,-0.90249 0.08781,-1.06909 -0.09553,-0.057 -0.366343,0.0452 -0.601806,0.22673 -0.307489,0.2371 -0.33659,0.33017 -0.103292,0.33024 0.212667,-4.5e-4 0.171117,0.0921 -0.120383,0.26648 -0.24486,0.14651 -0.726761,0.51189 -1.070893,0.81196 -0.755364,0.65867 -0.717267,0.6592 -1.800954,-0.0247 z"
     id="path12"
     inkscape:connector-curvature="0"
     sodipodi:nodetypes="cccccccccccccccccccccscsccccccccccccccccccccccccccccccccccccccccccccccccccccccccccccccccccccccccccsccccccccccccccscccccccccsccccccccccccccccscscsccccccssccccccsccccccccccccccccccccccccccccccccccccccccccccccccccccccccccccsccccccccccccscccccccccccccccscccccccccccccccccccccccccccccccccccccccccc" />
</svg>
